<svg xmlns="http://www.w3.org/2000/svg" width="20" height="20" version="1.1" viewBox="0 0 384 448"><title/><path d="M322 161.75c9.25 0 18.5 1.75 26.75 5.75 24 10.75 35.25 30.5 35.25 56.5v44.25c0 15.75-2 31.5-5.75 46.5l-21.25 84.75c-7 28.5-32.5 48.5-62 48.5h-167c-35.25 0-64-28.75-64-64v-100.25l-59.75-157c-2.75-7.25-4.25-15-4.25-22.75 0-35.25 28.75-64 64-64 26.5 0 50.5 16.5 59.75 41.25l4.25 11v-28.25c0-35.25 28.75-64 64-64s64 28.75 64 64v65.25c4-0.75 8-1.25 12-1.25 23 0 44 13.25 54 33.75zM268 160c-11 0-21 6.5-25.5 16.5l-18.5 40.75-17.75 38.75h13.75c16.75 0 31.5 11.75 35 28l38.5-84.5c1.75-3.5 2.5-7.5 2.5-11.5 0-15.5-12.5-28-28-28zM323.25 193.75c-19 0-25 15.25-31.75 30.25l-33 72.5c-1.75 3.5-2.5 7.5-2.5 11.5 0 15.5 12.5 28 28 28 11 0 21-6.5 25.5-16.5l40-88c1.25-2.5 2.25-6.5 2.25-9.5 0-16.75-12-28.25-28.5-28.25zM32 104c0 4 0.75 7.75 2 11.5l62 162.5v17.25l25.5-27.75c6.75-7.25 16.5-11.5 26.5-11.5h49.5l26.5-58.25v-133.75c0-17.75-14.25-32-32-32s-32 14.25-32 32v160h-16l-50-131.5c-4.75-12.25-16.75-20.5-30-20.5-17.75 0-32 14.5-32 32zM295 416c14.75 0 27.5-10 31-24.25l21.25-84.75c3.25-12.5 4.75-25.75 4.75-38.75v-22.75l-35.25 77.5c-5.75 12.75-18.75 21-32.75 21-17.5 0-32.75-12.75-35.5-30.25-6.75 8.75-17.25 14.25-28.5 14.25h-52v-8h52c15.25 0 29-12.5 29-28 0-15.25-11.5-28-27-28h-74c-7.75 0-15.25 3.25-20.5 9l-31.5 34v77c0 17.75 14.25 32 32 32h167z"/></svg>